<svg xmlns="http://www.w3.org/2000/svg" version="1.1" xmlns:xlink="http://www.w3.org/1999/xlink" xmlns:svgjs="http://svgjs.dev/svgjs" viewBox="0 0 1920 1080"><rect width="1920" height="1080" fill="#222629"></rect><g transform="matrix(-2.112515728529184e-16,-1.15,1.15,-2.112515728529184e-16,334.1443595886233,1638.4160135269167)"><path d="M0,-1080C21.183473195203124,-977.3217639703569,128.26787761260476,-666.6175048016457,127.10083917121875,-463.9305838221414C125.93380072983275,-261.2436628426371,7.681400576217774,-69.45705224369462,-7.002230648316015,136.12152587702565C-21.685861872849806,341.70010399774594,27.572862023542683,548.8007997851179,38.99905182401602,769.5408849021801C50.42524162448936,990.2809700192423,68.05475012519335,1228.8188507297627,61.554908154524014,1460.5620365793993C55.05506618385468,1692.305222429036,10.259151359087335,2043.4270060965666,0,2160L 1920 2160 L 1920 -1080 Z" fill="url(&quot;#SvgjsLinearGradient1122&quot;)"></path><path d="M160,-1080C149.4614422297754,-953.0819876477154,84.82304351271091,-514.760380114056,96.7686533786524,-318.4919258862926C108.7142632445939,-122.2234716585292,229.88982391563607,-82.20630538073135,231.67365919564895,97.6107253665806C233.45749447566183,277.42775611389254,136.25921274701173,522.550566686128,107.47166505872974,760.4102585975791C78.68411737044774,998.2699505090301,50.193650575745245,1291.503919934883,58.94837306595696,1524.7688768352864C67.70309555616866,1758.0338337356898,143.1580621776595,2054.1281461392146,160,2160L 1920 2160 L 1920 -1080 Z" fill="url(&quot;#SvgjsLinearGradient1123&quot;)"></path><path d="M320,-1080C300.2154584043567,-1006.9155349256932,181.93733194496724,-780.2625695390266,201.2927504261403,-641.4932095541594C220.64816890731333,-502.72384956929227,422.23217776269667,-389.82862581886775,436.13251088703834,-247.38384009079738C450.03284401138,-104.93905436272703,320.8007250893194,55.02440664714271,284.69474917219026,213.17550481426264C248.58877325506106,371.32660298138256,205.94182537122677,531.4419115963908,219.4966553842632,701.5227489119222C233.05148539729961,871.6035862274537,350.0968073460865,1071.7537950282665,366.02372925040873,1233.660528707451C381.95065115473096,1395.5672623866355,322.7288083519313,1518.5732391049382,315.05818681019656,1672.9631509870296C307.3875652684618,1827.353062869121,319.1763644683661,2078.8271918311716,320,2160L 1920 2160 L 1920 -1080 Z" fill="url(&quot;#SvgjsLinearGradient1124&quot;)"></path><path d="M480,-1080C495.4893718369594,-991.2876557553992,567.1790200706105,-686.4124985881026,572.9362310217562,-547.7259345323955C578.6934419729018,-409.0393704766884,517.0752232878563,-392.3798292804895,514.5432657068743,-247.88061566575743C512.0113081258924,-103.38140205102533,562.6353392748498,148.10115473891628,557.7444855358647,319.269347155997C552.8536317968795,490.43753957307774,491.3353637134033,646.2669235179882,485.1981432729634,779.1285388367271C479.06092283252354,911.990154155466,528.5050648698915,957.0767945736807,520.9211628932255,1116.4390390684307C513.3372609165596,1275.8012835631807,446.5149252285052,1561.3751789832988,439.6947314129676,1735.302005805227C432.87453759743,1909.2288326271553,473.2824552354946,2089.217000967538,480,2160L 1920 2160 L 1920 -1080 Z" fill="url(&quot;#SvgjsLinearGradient1125&quot;)"></path><path d="M640,-1080C628.9790267758835,-993.5829525880041,554.4281531661983,-756.2519843067668,573.8741606553012,-561.4977155280249C593.3201681444042,-366.74344674928295,748.9218347558153,-84.99681829830175,756.676044934618,88.52561267245119C764.4302551134206,262.0480436432041,660.4192910685904,302.2484309333671,620.3994217281167,479.6368702964929C580.3795523876431,657.0253096596186,508.61889115484394,948.955585781765,516.5568288917761,1152.8562488512057C524.4947666287084,1356.7569119206464,647.4531862983392,1535.1835568550048,668.0270481497099,1703.0408487131372C688.6009100010806,1870.8981405712696,644.6711746916183,2083.8401414521895,640,2160L 1920 2160 L 1920 -1080 Z" fill="url(&quot;#SvgjsLinearGradient1126&quot;)"></path><path d="M800,-1080C818.9815746036735,-988.4790524237536,933.9381988159158,-696.4679973286759,913.8894476220411,-530.8743145425216C893.8406964281663,-365.28063175636726,678.9022520587403,-239.98893886595928,679.7074928367515,-86.43790328307415C680.5127336147627,67.11313229981099,894.8762543882261,267.74311264550846,918.7208922901082,390.4318989547893C942.5655301919902,513.1206852640701,842.4806686172245,505.5977488729067,822.775320248044,649.6948145726108C803.0699718788634,793.7918802723148,818.529092655733,1096.8509269700207,800.488802075025,1255.0142931530136C782.4485114943169,1413.1776593360064,714.6150437762999,1447.8440605294036,714.5335767637957,1598.675011670568C714.4521097512916,1749.5059628117324,785.7555961272993,2066.445835278428,800,2160L 1920 2160 L 1920 -1080 Z" fill="url(&quot;#SvgjsLinearGradient1127&quot;)"></path><path d="M960,-1080C961.6641913007322,-977.6826641289836,980.0860286757302,-643.4461433582019,969.9851478043934,-466.09598477390165C959.8842669330566,-288.7458261896014,909.3612005390897,-198.04838188422352,899.3947147719794,-15.899048494198553C889.428229004869,166.2502848958264,894.3472937125497,428.0888512032492,910.186233201731,626.8000155662481C926.0251726909124,825.5111799292471,997.3654498661717,1031.3281379776145,994.4283517070673,1176.3679376837954C991.491253547963,1321.4077373899763,898.3017028649496,1333.1001367506333,892.563644247105,1497.038813803334C886.8255856292604,1660.9774908560348,948.7606073745175,2049.506468967222,960,2160L 1920 2160 L 1920 -1080 Z" fill="url(&quot;#SvgjsLinearGradient1128&quot;)"></path><path d="M1120,-1080C1120.028066112204,-943.0068844186515,1138.900869326057,-536.6717906092108,1120.1683966732237,-258.0413065119086C1101.4359240203903,20.589177585393543,994.6262393979766,317.93771312680036,1007.6051640829994,591.782904583813C1020.5840887680222,865.6280960408255,1179.3094721305267,1123.6603263274694,1198.0419447833601,1385.0298422301673C1216.7744174361935,1646.3993581328652,1133.0069907972268,2030.838307038361,1120,2160L 1920 2160 L 1920 -1080 Z" fill="url(&quot;#SvgjsLinearGradient1129&quot;)"></path><path d="M1280,-1080C1273.1109563791479,-951.8335577613664,1253.7145178444107,-527.2840429140879,1238.6657382748874,-311.0013465681981C1223.6169587053641,-94.7186502223083,1194.0569233913334,7.8441703469237325,1189.7073225828608,217.6961780753386C1185.3577217743882,427.5481858037534,1179.146011843393,746.0671983684271,1212.5681334240521,948.110699802291C1245.9902550047113,1150.1542012361551,1379.0014076374907,1227.975636645571,1390.2400520668155,1429.9571866785225C1401.4786964961402,1631.938736711474,1298.373342011136,2038.3261977797538,1280,2160L 1920 2160 L 1920 -1080 Z" fill="url(&quot;#SvgjsLinearGradient1130&quot;)"></path><path d="M1440,-1080C1423.3178979814354,-963.4040836992424,1351.7366645796903,-581.4674947245367,1339.907387888613,-380.4245021954543C1328.0781111975355,-179.38150966637187,1364.5539221812553,-94.01078747222121,1369.0243398535358,126.25795517449461C1373.4947575258163,346.5266978212104,1365.3645671749637,714.7319334064227,1366.7298939222956,941.1879536848405C1368.0952206696275,1167.6439739632583,1365.0046159912429,1281.8587357924748,1377.216300337527,1484.9940768450015C1389.427984683811,1688.1294178975281,1429.5360500562545,2047.4990128075003,1440,2160L 1920 2160 L 1920 -1080 Z" fill="url(&quot;#SvgjsLinearGradient1131&quot;)"></path><path d="M1600,-1080C1593.1502747770473,-1002.7305655601799,1542.3146368952407,-768.0185953363634,1558.9016486622836,-616.3833933610792C1575.4886604293265,-464.7481913857951,1679.9645950661543,-305.04118119851364,1699.5220706022576,-170.1887881482952C1719.079546138361,-35.33639509807679,1679.235114453809,44.5292120859898,1676.2465018789028,192.73096494023122C1673.2578893039965,340.93271779447264,1715.0388650712896,527.842994348562,1681.5903951528198,719.0217289771533C1648.14192523435,910.2004636057446,1477.6270776532588,1185.3239288214513,1475.5556823680838,1339.803372711779C1473.4842870829088,1494.2828166021068,1648.4213038364503,1509.1989544377502,1669.1620234417696,1645.8983923191204C1689.902743047089,1782.5978302004905,1611.5270039069617,2074.316398719853,1600,2160L 1920 2160 L 1920 -1080 Z" fill="url(&quot;#SvgjsLinearGradient1132&quot;)"></path><path d="M1760,-1080C1767.181974951295,-1007.4366362833662,1824.2140586766004,-814.2386141992872,1803.0918497077694,-644.6198177001974C1781.9696407389383,-475.00102120110745,1622.7290776520094,-277.3076446189234,1633.2667461870142,-62.28722100546054C1643.804414722019,152.73320260800233,1849.4419369637253,445.3188816740735,1866.3178609177974,645.5027239805798C1883.1937848718694,845.6865662870862,1764.7073014823404,995.8710123818242,1734.5222899114465,1138.8158328335771C1704.3372783405525,1281.76065328533,1680.961506477674,1332.9742854966933,1685.207791492433,1503.171646691097C1689.454076507192,1673.3690078855009,1747.5346319154055,2050.5286077818496,1760,2160L 1920 2160 L 1920 -1080 Z" fill="url(&quot;#SvgjsLinearGradient1133&quot;)"></path></g><defs><linearGradient x1="0.1" y1="0" x2="0" y2="1" id="SvgjsLinearGradient1122"><stop stop-color="#222629" offset="0"></stop><stop stop-color="#222729" offset="0"></stop></linearGradient><linearGradient x1="0.1" y1="0" x2="0" y2="1" id="SvgjsLinearGradient1123"><stop stop-color="#32383d" offset="0"></stop><stop stop-color="#323a3d" offset="0.08333333333333333"></stop></linearGradient><linearGradient x1="0.1" y1="0" x2="0" y2="1" id="SvgjsLinearGradient1124"><stop stop-color="#434b51" offset="0"></stop><stop stop-color="#434d51" offset="0.16666666666666666"></stop></linearGradient><linearGradient x1="0.1" y1="0" x2="0" y2="1" id="SvgjsLinearGradient1125"><stop stop-color="#535d65" offset="0"></stop><stop stop-color="#536065" offset="0.25"></stop></linearGradient><linearGradient x1="0.1" y1="0" x2="0" y2="1" id="SvgjsLinearGradient1126"><stop stop-color="#647078" offset="0"></stop><stop stop-color="#647378" offset="0.3333333333333333"></stop></linearGradient><linearGradient x1="0.1" y1="0" x2="0" y2="1" id="SvgjsLinearGradient1127"><stop stop-color="#74828c" offset="0"></stop><stop stop-color="#74868c" offset="0.4166666666666667"></stop></linearGradient><linearGradient x1="0.1" y1="0" x2="0" y2="1" id="SvgjsLinearGradient1128"><stop stop-color="#88949d" offset="0"></stop><stop stop-color="#88979d" offset="0.5"></stop></linearGradient><linearGradient x1="0.1" y1="0" x2="0" y2="1" id="SvgjsLinearGradient1129"><stop stop-color="#9ca6ad" offset="0"></stop><stop stop-color="#9ca9ad" offset="0.5833333333333334"></stop></linearGradient><linearGradient x1="0.1" y1="0" x2="0" y2="1" id="SvgjsLinearGradient1130"><stop stop-color="#b0b8bd" offset="0"></stop><stop stop-color="#b0babd" offset="0.6666666666666666"></stop></linearGradient><linearGradient x1="0.1" y1="0" x2="0" y2="1" id="SvgjsLinearGradient1131"><stop stop-color="#c4cace" offset="0"></stop><stop stop-color="#c4ccce" offset="0.75"></stop></linearGradient><linearGradient x1="0.1" y1="0" x2="0" y2="1" id="SvgjsLinearGradient1132"><stop stop-color="#d8dcde" offset="0"></stop><stop stop-color="#d8ddde" offset="0.8333333333333334"></stop></linearGradient><linearGradient x1="0.1" y1="0" x2="0" y2="1" id="SvgjsLinearGradient1133"><stop stop-color="#ecedef" offset="0"></stop><stop stop-color="#ecedef" offset="0.9166666666666666"></stop></linearGradient></defs></svg>